<?xml version="1.0" standalone="no"?><!DOCTYPE svg PUBLIC "-//W3C//DTD SVG 1.1//EN" "http://www.w3.org/Graphics/SVG/1.1/DTD/svg11.dtd"><svg class="icon" width="128px" height="128.00px" viewBox="0 0 1024 1024" version="1.1" xmlns="http://www.w3.org/2000/svg"><path fill="#515151" d="M520.142844 1023.999488a20.47999 20.47999 0 0 1-7.321596-1.331199c-103.423948-39.52638-192.204704-108.851146-263.731069-206.028697-56.678372-77.004761-102.707149-171.571114-136.703931-281.08786C54.632677 350.054225 51.253478 187.903906 51.202278 181.043109a20.63359 20.63359 0 0 1 16.588792-20.633589c0.9216-0.2048 94.361553-19.04639 222.412689-65.279968 22.783989-8.191996 47.974376-22.374389 74.649563-37.375981C415.234096 29.286385 467.35567 0 520.194044 0h0.1024c66.457567 0 119.34714 30.105585 170.547115 59.23837 24.115188 13.721593 46.950377 26.726387 70.451164 36.147182a20.68479 20.68479 0 0 1-15.257592 38.399981c-26.111987-10.444795-51.199974-24.729588-75.468762-38.553581-48.639976-27.699186-94.719953-53.862373-150.271925-53.862373H520.194044c-42.035179 0-89.395155 26.623987-135.167933 52.428774-28.211186 15.871992-54.835173 30.873585-80.895959 40.24318A1859.07107 1859.07107 0 0 1 93.083857 197.222301c2.508799 46.131177 13.311993 180.73591 58.879971 326.963037 32.716784 104.908748 76.646362 195.174302 130.559935 268.287866 65.279967 88.575956 145.612727 152.166324 238.84788 189.132705 19.25119-5.734397 87.193556-30.105585 163.430319-106.137547 52.940774-52.838374 99.43035-119.91034 138.23993-199.3727 48.793576-99.83995 85.503957-219.54549 108.953546-355.839822a20.58239 20.58239 0 1 1 40.55038 7.065596c-24.371188 141.311929-62.668769 265.676667-113.817543 369.561416-41.215979 83.763158-90.879955 154.623923-147.609527 210.534294-97.996751 96.665552-183.142308 115.404742-186.726306 116.121542a20.42879 20.42879 0 0 1-4.198398 0.4608z m133.119933-698.367651a583.014108 583.014108 0 0 1-178.99511 98.611151H680.961964c18.943991 0 31.846384 3.942398 38.91198 11.775994 6.963197 7.884796 10.444795 21.145589 10.444795 39.73118v209.049496c0 18.585591-3.481598 32.051184-10.495995 40.294379-7.014396 8.294396-19.96799 12.390394-38.91198 12.390394H353.282127c-19.35359 0-32.511984-4.095998-39.52638-12.390394-7.014396-8.243196-10.495995-21.708789-10.495995-40.294379V465.202967a819.45559 819.45559 0 0 1-51.865574 6.195197 54.118373 54.118373 0 0 1-23.142388-2.150399c-6.348797-2.252799-9.983995-7.526396-10.751995-15.871992-0.8704-9.471995 0.768-16.383992 4.915198-20.735989 4.095998-4.351998 12.339194-7.321596 24.678387-9.011196 85.196757-9.471995 158.515121-25.702387 220.05749-48.639975 61.439969-22.988789 112.639944-51.609574 153.343924-85.964758 9.062395-7.423996 16.486392-11.980794 22.220789-13.619193l-17.254392-18.63679a928.767536 928.767536 0 0 1-17.919991-19.81439c-14.387193-15.718392-15.206392-28.723186-2.457599-39.065581 6.963197-5.785597 13.158393-7.577596 18.534391-5.273597a66.559967 66.559967 0 0 1 19.097591 14.540792 1273.240963 1273.240963 0 0 1 63.590368 68.863966 1306.520947 1306.520947 0 0 1 59.90397 75.673562c6.553597 9.113595 9.830395 16.947192 9.830395 23.551988 0 6.655997-2.662399 12.236794-8.038396 16.793592-6.143997 5.785597-12.748794 7.526396-19.71199 5.222397-7.014396-2.252799-14.643193-9.215995-22.835189-20.735989a1226.853787 1226.853787 0 0 0-27.135986-36.607982 680.03806 680.03806 0 0 0-27.187187-32.870384 57.855971 57.855971 0 0 1-17.919991 18.585591zM414.312497 237.567881c-13.977593 23.551988-29.951985 46.591977-47.820776 69.119966-17.919991 22.579189-39.01438 44.390378-63.283169 65.484767-7.014396 6.195197-13.875193 9.523195-20.684789 9.932795a20.63359 20.63359 0 0 1-17.561591-8.089596c-4.966398-6.195197-6.707197-12.492794-5.273598-18.943991 1.433599-6.348797 6.655997-13.516793 15.769592-21.350389a496.537352 496.537352 0 0 0 58.009571-58.009571c15.206392-18.431991 28.364786-37.734381 39.475181-58.009571 4.556798-8.243196 9.676795-13.926393 15.462392-17.049591 5.734397-3.071998 12.287994-2.764799 19.71199 0.921599 14.438393 7.065596 16.486392 19.04639 6.143997 35.993582z m268.492666 241.919879a12.748794 12.748794 0 0 0-2.150399-7.475196c-1.484799-2.047999-3.583998-3.071998-6.502397-3.071998H362.498123c-4.915198 0-8.294396 0.8192-10.188795 2.457598-1.843199 1.689599-2.764799 4.351998-2.764799 8.089596v35.942382h333.311834v-35.942382z m0 79.97436h-333.311834v44.697578h333.311834v-44.697578z m0 88.729556h-333.311834v31.641584c0 8.243196 2.662399 12.390394 8.038396 12.390394h316.620642c5.734397 0 8.652796-4.095998 8.652796-12.390394v-31.641584zM535.349236 321.279839c0 16.588792-7.833596 24.831988-23.449588 24.831988a27.391986 27.391986 0 0 1-16.691192-4.966398c-4.505598-3.276798-6.809597-9.318395-6.809596-17.971191v-137.727931c0-7.014396 2.201599-12.492794 6.502397-16.383992a23.398388 23.398388 0 0 1 16.383991-5.939197c6.963197 0 12.748794 1.996799 17.254392 5.887997a20.63359 20.63359 0 0 1 6.809596 16.435192v135.833532z" /></svg>