<?xml version="1.0" standalone="no"?><!DOCTYPE svg PUBLIC "-//W3C//DTD SVG 1.1//EN" "http://www.w3.org/Graphics/SVG/1.1/DTD/svg11.dtd"><svg t="1624367576011" class="icon" viewBox="0 0 1083 1024" version="1.1" xmlns="http://www.w3.org/2000/svg" p-id="2226" xmlns:xlink="http://www.w3.org/1999/xlink" width="211.5234375" height="200"><defs><style type="text/css">@font-face { font-family: element-icons; src: url("chrome-extension://moombeodfomdpjnpocobemoiaemednkg/fonts/element-icons.woff") format("woff"), url("chrome-extension://moombeodfomdpjnpocobemoiaemednkg/fonts/element-icons.ttf ") format("truetype"); }
</style></defs><path d="M365.754454 848.191206a371.014493 371.014493 0 1 0 293.244524-681.626484 371.014493 371.014493 0 1 0-293.244524 681.626484Z" fill="#E9EAEB" p-id="2227"></path><path d="M452.637681 106.852174l-59.362319 118.724638h118.724638z" fill="#FFFFFF" p-id="2228"></path><path d="M393.275362 225.576812h118.724638v608.463768h-118.724638z" fill="#A3D4FF" p-id="2229"></path><path d="M512 848.881159h-118.724638c-8.904348 0-14.84058-5.936232-14.840579-14.840579v-608.463768c0-2.968116 0-4.452174 1.484058-5.936232l59.362318-118.724638c4.452174-10.388406 20.776812-10.388406 26.713044 0l59.362319 118.724638c1.484058 1.484058 1.484058 4.452174 1.484058 5.936232v608.463768c0 7.42029-5.936232 14.84058-14.84058 14.840579z m-103.884058-29.681159h89.043478V228.544928l-44.521739-89.043479-44.521739 89.043479v590.655072z" fill="#2A5082" p-id="2230"></path><path d="M437.797101 225.576812h29.68116v608.463768h-29.68116zM482.318841 937.924638h-59.362319c-25.228986 0-44.521739-19.292754-44.521739-44.521739v-59.362319h29.681159v59.362319c0 8.904348 5.936232 14.84058 14.84058 14.840579h59.362319c8.904348 0 14.84058-5.936232 14.840579-14.840579v-59.362319h29.68116v59.362319c0 23.744928-19.292754 44.521739-44.521739 44.521739z" fill="#2A5082" p-id="2231"></path><path d="M393.275362 225.576812h118.724638v29.681159h-118.724638z" fill="#2A5082" p-id="2232"></path><path d="M304.231884 299.77971c53.426087-71.234783-31.165217-90.527536-16.324638-186.991304-72.718841 37.101449-99.431884 102.4-81.623188 161.762319 10.388406 35.617391 57.878261 63.814493 97.947826 25.228985z" fill="#E9EAEB" p-id="2233"></path><path d="M262.678261 332.428986c-5.936232 0-11.872464-1.484058-17.808696-2.968116-25.228986-7.42029-44.521739-26.713043-51.942029-51.942029-20.776812-71.234783 14.84058-140.985507 89.043478-179.571015l26.713044-13.356522-4.452174 28.197102c-5.936232 40.069565 5.936232 63.814493 17.808696 87.55942 14.84058 29.681159 29.681159 59.362319-4.452174 106.852174l-1.484058 1.484058c-17.808696 16.324638-35.617391 23.744928-53.426087 23.744928z m8.904348-191.443479c-46.005797 32.649275-65.298551 81.623188-50.457971 130.597102 4.452174 14.84058 16.324638 26.713043 31.165217 31.165217 13.356522 4.452174 28.197101 0 40.069565-11.872464 22.26087-31.165217 14.84058-46.005797 1.484058-74.202898-10.388406-20.776812-20.776812-43.037681-22.260869-75.686957z" fill="#2A5082" p-id="2234"></path><path d="M230.028986 314.62029h74.202898v163.246377h-74.202898z" fill="#FFFFFF" p-id="2235"></path><path d="M319.072464 492.707246h-103.884058v-192.927536h103.884058v192.927536z m-74.202899-29.681159h44.521739v-133.565217h-44.521739v133.565217z" fill="#2A5082" p-id="2236"></path><path d="M265.646377 923.084058c-20.776812 0-35.617391-16.324638-35.617391-37.101449V463.026087h74.202898v422.956522c0 20.776812-17.808696 37.101449-38.585507 37.101449z" fill="#A3D4FF" p-id="2237"></path><path d="M267.130435 937.924638c-28.197101 0-51.942029-23.744928-51.942029-51.942029V448.185507h103.884058v437.797102c0 28.197101-23.744928 51.942029-51.942029 51.942029z m-22.26087-460.057971v408.115942c0 11.872464 8.904348 22.26087 22.26087 22.260869 11.872464 0 22.26087-10.388406 22.260869-22.260869V477.866667h-44.521739z" fill="#2A5082" p-id="2238"></path><path d="M586.202899 507.547826v207.768116h356.173913v-207.768116s-124.66087-26.713043-136.533334-75.686956c-11.872464-47.489855 35.617391-120.208696 35.617392-163.246377 0-41.553623-37.101449-72.718841-77.171015-72.718841s-78.655072 31.165217-78.655072 72.718841c0 44.521739 47.489855 115.756522 35.617391 163.246377-10.388406 47.489855-135.049275 75.686957-135.049275 75.686956z" fill="#FFFFFF" p-id="2239"></path><path d="M615.884058 715.315942h296.811594v192.927536h-296.811594z" fill="#A3D4FF" p-id="2240"></path><path d="M927.536232 923.084058h-326.492754v-222.608696h326.492754v222.608696z m-296.811594-29.681159h267.130434v-163.246377h-267.130434v163.246377z" fill="#2A5082" p-id="2241"></path><path d="M645.565217 552.069565h237.449276v103.884058h-237.449276z" fill="#E9EAEB" p-id="2242"></path><path d="M897.855072 670.794203h-267.130434v-133.565217h267.130434v133.565217z m-237.449275-29.68116h207.768116v-74.202898h-207.768116v74.202898zM660.405797 834.04058h29.68116v74.202898h-29.68116zM823.652174 804.35942h29.681159v103.884058h-29.681159zM764.289855 848.881159h29.681159v59.362319h-29.681159zM749.449275 255.257971h29.68116v29.681159h-29.68116z" fill="#2A5082" p-id="2243"></path></svg>